<?xml version="1.0" encoding="UTF-8" standalone="no"?>
<svg
   xmlns:dc="http://purl.org/dc/elements/1.1/"
   xmlns:cc="http://creativecommons.org/ns#"
   xmlns:rdf="http://www.w3.org/1999/02/22-rdf-syntax-ns#"
   xmlns:svg="http://www.w3.org/2000/svg"
   xmlns="http://www.w3.org/2000/svg"
   xmlns:sodipodi="http://sodipodi.sourceforge.net/DTD/sodipodi-0.dtd"
   xmlns:inkscape="http://www.inkscape.org/namespaces/inkscape"
   version="1.1"
   id="svg86"
   sodipodi:docname="rubiks_cube2.svg"
   width="271.9126"
   height="203.86592"
   inkscape:version="0.92.2 5c3e80d, 2017-08-06">
  <sodipodi:namedview
     pagecolor="#ffffff"
     bordercolor="#666666"
     borderopacity="1"
     objecttolerance="10"
     gridtolerance="10"
     guidetolerance="10"
     inkscape:pageopacity="0"
     inkscape:pageshadow="2"
     inkscape:window-width="3200"
     inkscape:window-height="1688"
     id="namedview1010"
     showgrid="false"
     fit-margin-left="10"
     fit-margin-top="10"
     fit-margin-right="10"
     fit-margin-bottom="10"
     inkscape:zoom="5.402052"
     inkscape:cx="220.53363"
     inkscape:cy="111.96153"
     inkscape:window-x="0"
     inkscape:window-y="56"
     inkscape:window-maximized="1"
     inkscape:current-layer="g5797"
     inkscape:snap-midpoints="true"
     inkscape:snap-intersection-paths="true">
    <inkscape:grid
       type="xygrid"
       id="grid2927"
       originx="-741.46869"
       originy="195.518" />
  </sodipodi:namedview>
  <metadata
     id="metadata1014">
    <rdf:RDF>
      <cc:Work
         rdf:about="">
        <dc:format>image/svg+xml</dc:format>
        <dc:type
           rdf:resource="http://purl.org/dc/dcmitype/StillImage" />
        <dc:title />
      </cc:Work>
    </rdf:RDF>
  </metadata>
  <defs
     id="defs1012">
    <inkscape:perspective
       sodipodi:type="inkscape:persp3d"
       inkscape:vp_x="340.96421 : 294.51839 : 1"
       inkscape:vp_y="0 : 1000 : 0"
       inkscape:vp_z="680.25881 : 346.7372 : 1"
       inkscape:persp3d-origin="479.92629 : 234.29964 : 1"
       id="perspective1612" />
  </defs>
  <g
     id="g5797"
     transform="translate(-741.46869,-273.58958)">
    <path
       inkscape:connector-curvature="0"
       id="path5728"
       d="m 824.66109,300.90068 113.722,-6.44792 -55.07797,108.33732 -4.73148,0.52513 -54.85639,-100.64608 z"
       style="fill:#000000;fill-opacity:1;stroke:#000000;stroke-width:1px;stroke-linecap:butt;stroke-linejoin:miter;stroke-opacity:1" />
    <g
       id="g5112">
      <path
         id="FACE-D"
         d="m 935.91574,429.71323 c 0,0 -54.66543,34.6691 -54.66543,34.6691 0,0 -53.85807,-24.30817 -53.85807,-24.30817 0,0 57.48534,-27.21431 57.48534,-27.21431 0,0 51.03816,16.85338 51.03816,16.85338"
         style="fill:#000000;fill-opacity:1;stroke:#000000;stroke-width:2.64583325;stroke-miterlimit:4;stroke-dasharray:none;stroke-opacity:1"
         inkscape:connector-curvature="0" />
      <path
         id="DRB-D"
         d="m 937.82223,430.34277 c 0,0 -12.55456,8.05335 -12.55456,8.05335 -0.91566,0.58737 -2.53129,0.74935 -3.61233,0.36112 0,0 -15.0815,-5.41614 -15.0815,-5.41614 -1.00906,-0.36238 -1.05541,-1.092 -0.11355,-1.6341 0,0 12.93959,-7.4475 12.93959,-7.4475 0.85263,-0.49074 2.32541,-0.62494 3.3107,-0.30247 0,0 14.69697,4.81007 14.69697,4.81007 1.05139,0.34411 1.24031,1.04606 0.41468,1.57567 0,0 0,0 0,0"
         style="fill:#ffff00;fill-opacity:1;stroke:#000000;stroke-width:2.64583325;stroke-miterlimit:4;stroke-dasharray:none;stroke-opacity:1"
         inkscape:connector-curvature="0" />
      <path
         id="DRF-D"
         d="m 900.01641,454.59398 c 0,0 -16.70764,10.71741 -16.70764,10.71741 -1.22833,0.78793 -3.14675,1.00537 -4.28708,0.48432 0,0 -15.82354,-7.23016 -15.82354,-7.23016 -1.05307,-0.48117 -0.88543,-1.44899 0.36248,-2.16724 0,0 17.01879,-9.79533 17.01879,-9.79533 1.11329,-0.64076 2.83356,-0.81589 3.86869,-0.39501 0,0 15.51335,6.30763 15.51335,6.30763 1.11504,0.45337 1.14504,1.37912 0.0549,2.07838 0,0 0,0 0,0"
         style="fill:#ffff00;fill-opacity:1;stroke:#000000;stroke-width:2.64583325;stroke-miterlimit:4;stroke-dasharray:none;stroke-opacity:1"
         inkscape:connector-curvature="0" />
      <path
         id="DLF-D"
         d="m 859.34449,437.87282 c 0,0 -17.24831,8.83778 -17.24831,8.83778 -1.26112,0.64618 -3.03888,0.82441 -3.97374,0.39725 0,0 -13.02055,-5.94941 -13.02055,-5.94941 -0.86973,-0.3974 -0.54182,-1.19728 0.72369,-1.79137 0,0 17.34633,-8.14316 17.34633,-8.14316 1.14043,-0.53537 2.74686,-0.68175 3.61197,-0.33 0,0 12.92324,5.25451 12.92324,5.25451 0.92586,0.37645 0.7689,1.14462 -0.36263,1.7244 0,0 0,0 0,0"
         style="fill:#ffff00;fill-opacity:1;stroke:#000000;stroke-width:2.64583325;stroke-miterlimit:4;stroke-dasharray:none;stroke-opacity:1"
         inkscape:connector-curvature="0" />
      <path
         id="DLB-D"
         d="m 899.03643,417.53526 c 0,0 -13.28418,6.80662 -13.28418,6.80662 -0.96483,0.49436 -2.48107,0.63065 -3.39071,0.30397 0,0 -12.72599,-4.57022 -12.72599,-4.57022 -0.85385,-0.30664 -0.74686,-0.92435 0.2314,-1.38359 0,0 13.49187,-6.3337 13.49187,-6.3337 0.89246,-0.41896 2.28219,-0.53357 3.12354,-0.25821 0,0 12.51869,4.09716 12.51869,4.09716 0.89332,0.29237 0.91263,0.88848 0.0354,1.33797 0,0 0,0 0,0"
         style="fill:#ffff00;fill-opacity:1;stroke:#000000;stroke-width:2.64583325;stroke-miterlimit:4;stroke-dasharray:none;stroke-opacity:1"
         inkscape:connector-curvature="0" />
      <path
         id="DR-D"
         d="m 920.2326,441.62595 c 0,0 -14.40928,9.24308 -14.40928,9.24308 -1.05483,0.67664 -2.80914,0.8633 -3.92146,0.41596 0,0 -15.47931,-6.22522 -15.47931,-6.22522 -1.03312,-0.41548 -0.98726,-1.25163 0.0915,-1.87253 0,0 14.77021,-8.50114 14.77021,-8.50114 0.96996,-0.55827 2.55709,-0.7109 3.56845,-0.34413 0,0 15.11905,5.48298 15.11905,5.48298 1.08397,0.3931 1.20493,1.19538 0.26081,1.801 0,0 0,0 0,0"
         style="fill:#ffff00;fill-opacity:1;stroke:#000000;stroke-width:2.64583325;stroke-miterlimit:4;stroke-dasharray:none;stroke-opacity:1"
         inkscape:connector-curvature="0" />
      <path
         id="DF-D"
         d="m 878.72689,445.84137 c 0,0 -17.04339,9.70972 -17.04339,9.70972 -1.2494,0.71179 -3.09507,0.90817 -4.12503,0.43756 0,0 -14.31972,-6.54303 -14.31972,-6.54303 -0.95483,-0.43629 -0.69888,-1.31415 0.5615,-1.96591 0,0 17.23424,-8.91209 17.23424,-8.91209 1.13035,-0.58452 2.79194,-0.74431 3.73635,-0.36032 0,0 14.12969,5.74505 14.12969,5.74505 1.01387,0.41224 0.94154,1.25369 -0.17364,1.88902 0,0 0,0 0,0"
         style="fill:#ffff00;fill-opacity:1;stroke:#000000;stroke-width:2.64583325;stroke-miterlimit:4;stroke-dasharray:none;stroke-opacity:1"
         inkscape:connector-curvature="0" />
      <path
         id="DL-D"
         d="m 880.4536,427.05683 c 0,0 -15.07267,7.72301 -15.07267,7.72301 -1.09813,0.56266 -2.73501,0.71782 -3.6597,0.34594 0,0 -12.90966,-5.19181 -12.90966,-5.19181 -0.86438,-0.34762 -0.66027,-1.04761 0.44778,-1.56778 0,0 15.23794,-7.15339 15.23794,-7.15339 1.00507,-0.47182 2.4955,-0.60086 3.35046,-0.29081 0,0 12.74492,4.62199 12.74492,4.62199 0.91115,0.33043 0.85322,1.00442 -0.13907,1.51285 0,0 0,0 0,0"
         style="fill:#ffff00;fill-opacity:1;stroke:#000000;stroke-width:2.64583325;stroke-miterlimit:4;stroke-dasharray:none;stroke-opacity:1"
         inkscape:connector-curvature="0" />
      <path
         id="DB-D"
         d="m 917.63329,423.67616 c 0,0 -12.97284,7.3907 -12.97284,7.3907 -0.9441,0.53786 -2.50867,0.68616 -3.49847,0.3307 0,0 -13.82882,-4.96628 -13.82882,-4.96628 -0.9266,-0.33276 -0.88985,-1.00294 0.0734,-1.50103 0,0 13.25973,-6.8568 13.25973,-6.8568 0.87548,-0.45273 2.30569,-0.57655 3.21475,-0.27903 0,0 13.54237,4.43219 13.54237,4.43219 0.96754,0.31666 1.06491,0.96246 0.20992,1.44955 0,0 0,0 0,0"
         style="fill:#ffff00;fill-opacity:1;stroke:#000000;stroke-width:2.64583325;stroke-miterlimit:4;stroke-dasharray:none;stroke-opacity:1"
         inkscape:connector-curvature="0" />
      <path
         id="D"
         d="m 899.47244,434.02251 c 0,0 -14.80044,8.43189 -14.80044,8.43189 -1.08076,0.61572 -2.77455,0.78554 -3.78658,0.37854 0,0 -14.10713,-5.67339 -14.10713,-5.67339 -0.94311,-0.37928 -0.81086,-1.14282 0.28599,-1.71003 0,0 15.05214,-7.78368 15.05214,-7.78368 0.99074,-0.51233 2.52818,-0.65242 3.45642,-0.31579 0,0 13.85602,5.02494 13.85602,5.02494 0.99195,0.35973 1.01573,1.09367 0.0436,1.64752 0,0 0,0 0,0"
         style="fill:#ffff00;fill-opacity:1;stroke:#000000;stroke-width:2.64583325;stroke-miterlimit:4;stroke-dasharray:none;stroke-opacity:1"
         inkscape:connector-curvature="0" />
    </g>
    <g
       id="g4010">
      <path
         id="FACE-U"
         d="m 881.31015,313.94155 c 0,0 54.69253,-19.4317 54.69253,-19.4317 0,0 -50.26144,-9.0847 -50.26144,-9.0847 0,0 -58.24891,15.18129 -58.24891,15.18129 0,0 53.81782,13.33511 53.81782,13.33511"
         style="fill:#000000;fill-opacity:1;stroke:#000000;stroke-width:2.64583325;stroke-miterlimit:4;stroke-dasharray:none;stroke-opacity:1"
         inkscape:connector-curvature="0" />
      <path
         id="URF-U"
         d="m 883.36543,314.45081 c 0,0 16.88846,-6.07324 16.88846,-6.07324 1.09624,-0.39422 1.07671,-0.90879 -0.0309,-1.15555 0,0 -15.41667,-3.43459 -15.41667,-3.43459 -1.02912,-0.22927 -2.75358,-0.12476 -3.87869,0.2359 0,0 -17.2846,5.54061 -17.2846,5.54061 -1.27371,0.40829 -1.46331,0.95111 -0.41079,1.21522 0,0 15.81176,3.96754 15.81176,3.96754 1.13923,0.28586 3.07339,0.15292 4.32144,-0.29589 0,0 0,0 0,0"
         style="fill:#ffffff;fill-opacity:1;stroke:#000000;stroke-width:2.64583325;stroke-miterlimit:4;stroke-dasharray:none;stroke-opacity:1"
         inkscape:connector-curvature="0" />
      <path
         id="URB-U"
         d="m 925.47241,299.30877 c 0,0 12.40336,-4.46036 12.40336,-4.46036 0.81258,-0.29221 0.62828,-0.67545 -0.40422,-0.86043 0,0 -14.44319,-2.58755 -14.44319,-2.58755 -0.96896,-0.17359 -2.42143,-0.0964 -3.2653,0.17413 0,0 -12.85429,4.12046 -12.85429,4.12046 -0.93916,0.30105 -0.90051,0.70215 0.0966,0.89815 0,0 14.89362,2.92759 14.89362,2.92759 1.06693,0.20972 2.66532,0.11458 3.57344,-0.21199 0,0 0,0 0,0"
         style="fill:#ffffff;fill-opacity:1;stroke:#000000;stroke-width:2.64583325;stroke-miterlimit:4;stroke-dasharray:none;stroke-opacity:1"
         inkscape:connector-curvature="0" />
      <path
         id="ULB-U"
         d="m 886.43825,291.71006 c 0,0 13.26918,-3.76054 13.26918,-3.76054 0.87312,-0.24745 0.86077,-0.57291 -0.0196,-0.73062 0,0 -12.34395,-2.21146 -12.34395,-2.21146 -0.83011,-0.14872 -2.21005,-0.0836 -3.10183,0.14674 0,0 -13.5289,3.49472 -13.5289,3.49472 -0.98441,0.25428 -1.10294,0.59362 -0.25689,0.75992 0,0 12.60326,2.47739 12.60326,2.47739 0.90041,0.17699 2.41145,0.098 3.37868,-0.17615 0,0 0,0 0,0"
         style="fill:#ffffff;fill-opacity:1;stroke:#000000;stroke-width:2.64583325;stroke-miterlimit:4;stroke-dasharray:none;stroke-opacity:1"
         inkscape:connector-curvature="0" />
      <path
         id="ULF-U"
         d="m 842.19364,304.24917 c 0,0 17.5989,-4.9876 17.5989,-4.9876 1.1491,-0.32566 1.3231,-0.75204 0.4015,-0.95736 0,0 -12.86842,-2.86688 -12.86842,-2.86688 -0.86174,-0.19199 -2.48234,-0.10584 -3.64438,0.19434 0,0 -17.75568,4.58656 -17.75568,4.58656 -1.30131,0.33615 -1.65846,0.78367 -0.78832,1.00201 0,0 13.02439,3.26813 13.02439,3.26813 0.93497,0.2346 2.73915,0.12721 4.03201,-0.2392 0,0 0,0 0,0"
         style="fill:#ffffff;fill-opacity:1;stroke:#000000;stroke-width:2.64583325;stroke-miterlimit:4;stroke-dasharray:none;stroke-opacity:1"
         inkscape:connector-curvature="0" />
      <path
         id="UR-U"
         d="m 906.08567,306.28041 c 0,0 14.3873,-5.1738 14.3873,-5.1738 0.93854,-0.33751 0.8238,-0.77913 -0.24657,-0.9916 0,0 -14.93827,-2.96533 -14.93827,-2.96533 -0.99985,-0.19847 -2.57699,-0.1091 -3.54637,0.20163 0,0 -14.82428,4.75196 -14.82428,4.75196 -1.08739,0.34856 -1.14588,0.81245 -0.1193,1.03863 0,0 15.37455,3.38739 15.37455,3.38739 1.1043,0.24331 2.85504,0.13155 3.91294,-0.24888 0,0 0,0 0,0"
         style="fill:#ffffff;fill-opacity:1;stroke:#000000;stroke-width:2.64583325;stroke-miterlimit:4;stroke-dasharray:none;stroke-opacity:1"
         inkscape:connector-curvature="0" />
      <path
         id="UB-U"
         d="m 905.13082,295.34891 c 0,0 12.89375,-4.08858 12.89375,-4.08858 0.84664,-0.26847 0.75503,-0.62108 -0.19683,-0.79161 0,0 -13.33181,-2.38844 -13.33181,-2.38844 -0.89551,-0.16043 -2.31103,-0.0896 -3.18201,0.15961 0,0 -13.2392,3.78874 -13.2392,3.78874 -0.96523,0.27622 -1.01167,0.64453 -0.0947,0.82477 0,0 13.67681,2.68841 13.67681,2.68841 0.97838,0.19232 2.53218,0.10576 3.47404,-0.1929 0,0 0,0 0,0"
         style="fill:#ffffff;fill-opacity:1;stroke:#000000;stroke-width:2.64583325;stroke-miterlimit:4;stroke-dasharray:none;stroke-opacity:1"
         inkscape:connector-curvature="0" />
      <path
         id="UL-U"
         d="m 865.91508,297.52641 c 0,0 15.2055,-4.3093 15.2055,-4.3093 0.99694,-0.28254 1.06542,-0.65332 0.1631,-0.83243 0,0 -12.62764,-2.50666 -12.62764,-2.50666 -0.84752,-0.16823 -2.33844,-0.0937 -3.35198,0.16814 0,0 -15.42744,3.98514 -15.42744,3.98514 -1.12632,0.29095 -1.34864,0.67874 -0.48801,0.86836 0,0 12.84901,2.83095 12.84901,2.83095 0.92001,0.2027 2.56508,0.11106 3.67746,-0.2042 0,0 0,0 0,0"
         style="fill:#ffffff;fill-opacity:1;stroke:#000000;stroke-width:2.64583325;stroke-miterlimit:4;stroke-dasharray:none;stroke-opacity:1"
         inkscape:connector-curvature="0" />
      <path
         id="UF-U"
         d="m 861.76768,309.09928 c 0,0 17.31694,-5.49117 17.31694,-5.49117 1.12752,-0.35754 1.21385,-0.82495 0.20564,-1.04956 0,0 -14.05632,-3.13153 -14.05632,-3.13153 -0.93987,-0.20939 -2.61108,-0.11468 -3.75856,0.2137 0,0 -17.5784,5.03051 -17.5784,5.03051 -1.29167,0.36965 -1.5736,0.86142 -0.61877,1.10101 0,0 14.31687,3.59244 14.31687,3.59244 1.02955,0.25833 2.89685,0.13913 4.1726,-0.2654 0,0 0,0 0,0"
         style="fill:#ffffff;fill-opacity:1;stroke:#000000;stroke-width:2.64583325;stroke-miterlimit:4;stroke-dasharray:none;stroke-opacity:1"
         inkscape:connector-curvature="0" />
      <path
         id="U"
         d="m 885.08774,301.70453 c 0,0 14.86157,-4.71257 14.86157,-4.71257 0.97204,-0.30824 0.95671,-0.71215 -0.0243,-0.90688 0,0 -13.71023,-2.72155 -13.71023,-2.72155 -0.91897,-0.18242 -2.45205,-0.10092 -3.44704,0.18382 0,0 -15.17887,4.34382 -15.17887,4.34382 -1.11068,0.31785 -1.25855,0.74117 -0.32042,0.94786 0,0 14.02691,3.09048 14.02691,3.09048 1.00586,0.22161 2.70247,0.12062 3.79234,-0.22498 0,0 0,0 0,0"
         style="fill:#ffffff;fill-opacity:1;stroke:#000000;stroke-width:2.64583325;stroke-miterlimit:4;stroke-dasharray:none;stroke-opacity:1"
         inkscape:connector-curvature="0" />
    </g>
    <g
       id="g4254">
      <path
         style="fill:#000000;fill-opacity:1;stroke:#000000;stroke-width:2.64583325;stroke-miterlimit:4;stroke-dasharray:none;stroke-opacity:1"
         d="m 823.94764,376.14948 c 0,0 53.9478,24.29584 53.9478,24.29584 0,0 0.002,-81.23365 0.002,-81.23365 0,0 -53.91436,-14.14017 -53.91436,-14.14017 0,0 -0.0357,71.07798 -0.0357,71.07798"
         id="FACE-F"
         inkscape:connector-curvature="0" />
      <path
         style="fill:#00ff1f;fill-opacity:1;stroke:#000000;stroke-width:2.64583325;stroke-miterlimit:4;stroke-dasharray:none;stroke-opacity:1"
         d="m 862.05827,395.92338 c 0,0 15.83709,7.23174 15.83709,7.23174 1.14147,0.52123 2.06483,-0.27151 2.06484,-1.7799 0,0 2e-4,-21.77743 2e-4,-21.77743 10e-6,-1.50778 -0.9231,-3.08522 -2.0643,-3.53475 0,0 -15.83348,-6.23687 -15.83348,-6.23687 -1.0536,-0.41501 -1.89814,0.41077 -1.8984,1.84967 0,0 -0.004,20.78237 -0.004,20.78237 -2.6e-4,1.43946 0.84404,2.98396 1.89786,3.46517 0,0 0,0 0,0"
         id="DRF-F"
         inkscape:connector-curvature="0" />
      <path
         style="fill:#00ff1f;fill-opacity:1;stroke:#000000;stroke-width:2.64583325;stroke-miterlimit:4;stroke-dasharray:none;stroke-opacity:1"
         d="m 823.94647,378.52028 c 0,0 13.02314,5.9468 13.02314,5.9468 0.93516,0.42702 1.69168,-0.32633 1.69219,-1.69095 0,0 0.007,-19.70209 0.007,-19.70209 5.1e-4,-1.36412 -0.75505,-2.76007 -1.69003,-3.12836 0,0 -13.02075,-5.12892 -13.02075,-5.12892 -0.86965,-0.34256 -1.5674,0.43539 -1.56808,1.74288 0,0 -0.01,18.88409 -0.01,18.88409 -6.7e-4,1.30795 0.69612,2.67937 1.56593,3.07655 0,0 0,0 0,0"
         id="DLF-F"
         inkscape:connector-curvature="0" />
      <path
         style="fill:#00ff1f;fill-opacity:1;stroke:#000000;stroke-width:2.64583325;stroke-miterlimit:4;stroke-dasharray:none;stroke-opacity:1"
         d="m 823.97261,326.38557 c 0,0 13.01788,4.14839 13.01788,4.14839 0.93476,0.29788 1.69096,-0.55885 1.69147,-1.92218 0,0 0.007,-19.68333 0.007,-19.68333 5.1e-4,-1.36282 -0.75473,-2.65339 -1.68931,-2.89265 0,0 -13.01548,-3.33204 -13.01548,-3.33204 -0.86931,-0.22255 -1.5668,0.65065 -1.56747,1.95695 0,0 -0.01,18.86685 -0.01,18.86685 -6.7e-4,1.30676 0.69586,2.58094 1.56532,2.85801 0,0 0,0 0,0"
         id="ULF-F"
         inkscape:connector-curvature="0" />
      <path
         style="fill:#00ff00;fill-opacity:1;stroke:#000000;stroke-width:2.64583325;stroke-miterlimit:4;stroke-dasharray:none;stroke-opacity:1"
         d="m 862.06783,338.52533 c 0,0 15.82916,5.04425 15.82916,5.04425 1.14088,0.36356 2.06374,-0.55545 2.06376,-2.06226 0,0 2e-4,-21.75452 2e-4,-21.75452 10e-6,-1.50619 -0.92262,-2.95493 -2.06322,-3.24693 0,0 -15.82556,-4.05144 -15.82556,-4.05144 -1.05309,-0.26959 -1.89723,0.67156 -1.89749,2.10901 0,0 -0.004,20.76151 -0.004,20.76151 -2.6e-4,1.43801 0.84364,2.86472 1.89696,3.20038 0,0 0,0 0,0"
         id="URF-F"
         inkscape:connector-curvature="0" />
      <path
         style="fill:#00ff1f;fill-opacity:1;stroke:#000000;stroke-width:2.64583325;stroke-miterlimit:4;stroke-dasharray:none;stroke-opacity:1"
         d="m 842.08767,386.80415 c 0,0 14.32706,6.54221 14.32706,6.54221 1.03062,0.47061 1.86432,-0.30239 1.86461,-1.7353 0,0 0.004,-20.68785 0.004,-20.68785 2.9e-4,-1.43235 -0.83278,-2.91369 -1.86318,-3.31957 0,0 -14.32412,-5.64233 -14.32412,-5.64233 -0.95501,-0.37618 -1.72091,0.42523 -1.7214,1.79528 0,0 -0.007,19.78781 -0.007,19.78781 -4.9e-4,1.37056 0.76476,2.82358 1.71996,3.25975 0,0 0,0 0,0"
         id="DF-F"
         inkscape:connector-curvature="0" />
      <path
         style="fill:#00ff1f;fill-opacity:1;stroke:#000000;stroke-width:2.64583325;stroke-miterlimit:4;stroke-dasharray:none;stroke-opacity:1"
         d="m 842.10636,332.16423 c 0,0 14.3206,4.56353 14.3206,4.56353 1.03014,0.32827 1.86345,-0.55871 1.86374,-1.99018 0,0 0.004,-20.66717 0.004,-20.66717 2.9e-4,-1.43092 -0.83239,-2.7961 -1.8623,-3.05976 0,0 -14.31767,-3.66541 -14.31767,-3.66541 -0.9546,-0.24438 -1.72017,0.66162 -1.72066,2.03035 0,0 -0.007,19.76889 -0.007,19.76889 -4.8e-4,1.36925 0.76444,2.71549 1.71923,3.01975 0,0 0,0 0,0"
         id="UF-F"
         inkscape:connector-curvature="0" />
      <path
         style="fill:#00ff1f;fill-opacity:1;stroke:#000000;stroke-width:2.64583325;stroke-miterlimit:4;stroke-dasharray:none;stroke-opacity:1"
         d="m 862.06305,367.21712 c 0,0 15.83313,6.13744 15.83313,6.13744 1.14117,0.44235 2.06428,-0.41355 2.06429,-1.92115 0,0 2e-4,-21.76597 2e-4,-21.76597 2e-5,-1.50699 -0.92285,-3.02004 -2.06376,-3.39076 0,0 -15.82951,-5.14359 -15.82951,-5.14359 -1.05335,-0.34227 -1.89769,0.54122 -1.89795,1.97939 0,0 -0.004,20.77194 -0.004,20.77194 -2.6e-4,1.43874 0.84384,2.92431 1.89741,3.3327 0,0 0,0 0,0"
         id="RF-F"
         inkscape:connector-curvature="0" />
      <path
         style="fill:#00ff1f;fill-opacity:1;stroke:#000000;stroke-width:2.64583325;stroke-miterlimit:4;stroke-dasharray:none;stroke-opacity:1"
         d="m 823.95954,352.44696 c 0,0 13.02051,5.04718 13.02051,5.04718 0.93496,0.36242 1.69132,-0.44265 1.69183,-1.80662 0,0 0.007,-19.69271 0.007,-19.69271 5.1e-4,-1.36347 -0.75489,-2.70669 -1.68967,-3.01044 0,0 -13.01812,-4.23006 -13.01812,-4.23006 -0.86948,-0.28253 -1.5671,0.54306 -1.56777,1.84995 0,0 -0.01,18.87547 -0.01,18.87547 -6.7e-4,1.30736 0.69599,2.63013 1.56562,2.96723 0,0 0,0 0,0"
         id="LF-F"
         inkscape:connector-curvature="0" />
      <path
         style="fill:#00ff1f;fill-opacity:1;stroke:#000000;stroke-width:2.64583325;stroke-miterlimit:4;stroke-dasharray:none;stroke-opacity:1"
         d="m 842.09702,359.47764 c 0,0 14.32383,5.55238 14.32383,5.55238 1.03037,0.39941 1.86388,-0.4306 1.86417,-1.8628 0,0 0.004,-20.6775 0.004,-20.6775 2.8e-4,-1.43164 -0.83259,-2.85486 -1.86274,-3.1896 0,0 -14.3209,-4.65338 -14.3209,-4.65338 -0.95481,-0.31025 -1.72054,0.54347 -1.72102,1.91287 0,0 -0.007,19.77834 -0.007,19.77834 -4.9e-4,1.3699 0.7646,2.7695 1.7196,3.13969 0,0 0,0 0,0"
         id="F"
         inkscape:connector-curvature="0" />
    </g>
    <g
       id="g4520">
      <path
         id="FACE-R"
         d="m 938.76877,298.38326 c 0,0 0,66.93726 0,66.93726 0,0 -54.44152,34.42238 -54.44152,34.42238 0,0 0,-80.96112 0,-80.96112 0,0 54.44152,-20.39852 54.44152,-20.39852"
         style="fill:#000000;fill-opacity:1;stroke:#000000;stroke-width:2.64583325;stroke-miterlimit:4;stroke-dasharray:none;stroke-opacity:1"
         inkscape:connector-curvature="0" />
      <path
         id="DRB-R"
         d="m 940.26052,346.62979 c 0,0 0,17.74747 0,17.74747 0,1.22901 -0.6632,2.64346 -1.49176,3.17445 0,0 -12.58431,8.06488 -12.58431,8.06488 -0.91673,0.58751 -1.65926,0.0137 -1.65926,-1.29017 0,0 0,-18.82836 0,-18.82836 0,-1.30386 0.74253,-2.76564 1.65926,-3.27444 0,0 12.58431,-6.98432 12.58431,-6.98432 0.82856,-0.45986 1.49176,0.16148 1.49176,1.39049 0,0 0,0 0,0"
         style="fill:#ff0000;fill-opacity:1;stroke:#000000;stroke-width:2.64583325;stroke-miterlimit:4;stroke-dasharray:none;stroke-opacity:1"
         inkscape:connector-curvature="0" />
      <path
         id="URB-R"
         d="m 940.26052,297.82429 c 0,0 0,17.74746 0,17.74746 0,1.22901 -0.6632,2.51818 -1.49176,2.89266 0,0 -12.58431,5.68767 -12.58431,5.68767 -0.91673,0.41433 -1.65926,-0.29975 -1.65926,-1.60361 0,0 0,-18.82836 0,-18.82836 0,-1.30386 0.74253,-2.62539 1.65926,-2.96101 0,0 12.58431,-4.60712 12.58431,-4.60712 0.82856,-0.30333 1.49176,0.4433 1.49176,1.67231 0,0 0,0 0,0"
         style="fill:#ff0000;fill-opacity:1;stroke:#000000;stroke-width:2.64583325;stroke-miterlimit:4;stroke-dasharray:none;stroke-opacity:1"
         inkscape:connector-curvature="0" />
      <path
         id="URF-R"
         d="m 902.91328,311.8178 c 0,0 0,20.31293 0,20.31293 0,1.40666 -0.86913,2.93192 -1.95585,3.42308 0,0 -16.63021,7.51628 -16.63021,7.51628 -1.2207,0.55172 -2.21035,-0.21308 -2.21035,-1.71868 0,0 0,-21.74147 0,-21.74147 0,-1.50559 0.98965,-3.08 2.21035,-3.5269 0,0 16.63021,-6.08832 16.63021,-6.08832 1.08672,-0.39785 1.95585,0.41641 1.95585,1.82308 0,0 0,0 0,0"
         style="fill:#ff0000;fill-opacity:1;stroke:#000000;stroke-width:2.64583325;stroke-miterlimit:4;stroke-dasharray:none;stroke-opacity:1"
         inkscape:connector-curvature="0" />
      <path
         id="DRF-R"
         d="m 902.91328,367.67831 c 0,0 0,20.31292 0,20.31292 0,1.40667 -0.86913,3.09611 -1.95585,3.79256 0,0 -16.63021,10.65777 -16.63021,10.65777 -1.2207,0.78231 -2.21035,0.20445 -2.21035,-1.30114 0,0 0,-21.74147 0,-21.74147 0,-1.50559 0.98965,-3.26693 2.21035,-3.94443 0,0 16.63021,-9.22982 16.63021,-9.22982 1.08672,-0.60313 1.95585,0.0469 1.95585,1.45361 0,0 0,0 0,0"
         style="fill:#ff0000;fill-opacity:1;stroke:#000000;stroke-width:2.64583325;stroke-miterlimit:4;stroke-dasharray:none;stroke-opacity:1"
         inkscape:connector-curvature="0" />
      <path
         id="RB-R"
         d="m 940.26052,322.22706 c 0,0 0,17.74747 0,17.74747 0,1.22901 -0.6632,2.58082 -1.49176,3.03356 0,0 -12.58431,6.87627 -12.58431,6.87627 -0.91673,0.50093 -1.65926,-0.14303 -1.65926,-1.44689 0,0 0,-18.82836 0,-18.82836 0,-1.30386 0.74253,-2.69552 1.65926,-3.11772 0,0 12.58431,-5.79573 12.58431,-5.79573 0.82856,-0.38159 1.49176,0.30239 1.49176,1.5314 0,0 0,0 0,0"
         style="fill:#ff0000;fill-opacity:1;stroke:#000000;stroke-width:2.64583325;stroke-miterlimit:4;stroke-dasharray:none;stroke-opacity:1"
         inkscape:connector-curvature="0" />
      <path
         id="RF-R"
         d="m 902.91328,339.74808 c 0,0 0,20.31292 0,20.31292 0,1.40667 -0.86913,3.01403 -1.95585,3.60783 0,0 -16.63021,9.08703 -16.63021,9.08703 -1.2207,0.66701 -2.21035,-0.004 -2.21035,-1.50992 0,0 0,-21.74147 0,-21.74147 0,-1.50559 0.98965,-3.17346 2.21035,-3.73566 0,0 16.63021,-7.65907 16.63021,-7.65907 1.08672,-0.50049 1.95585,0.23167 1.95585,1.63834 0,0 0,0 0,0"
         style="fill:#ff0000;fill-opacity:1;stroke:#000000;stroke-width:2.64583325;stroke-miterlimit:4;stroke-dasharray:none;stroke-opacity:1"
         inkscape:connector-curvature="0" />
      <path
         id="DR-R"
         d="m 922.8456,356.44466 c 0,0 0,18.94373 0,18.94373 0,1.31185 -0.75575,2.85231 -1.7003,3.45764 0,0 -14.39642,9.2262 -14.39642,9.2262 -1.05246,0.67449 -1.90527,0.096 -1.90527,-1.30151 0,0 0,-20.18032 0,-20.18032 0,-1.39749 0.85281,-2.99585 1.90527,-3.57997 0,0 14.39642,-7.99006 14.39642,-7.99006 0.94455,-0.52423 1.7003,0.11244 1.7003,1.42429 0,0 0,0 0,0"
         style="fill:#ff0000;fill-opacity:1;stroke:#000000;stroke-width:2.64583325;stroke-miterlimit:4;stroke-dasharray:none;stroke-opacity:1"
         inkscape:connector-curvature="0" />
      <path
         id="UR-R"
         d="m 922.8456,304.34943 c 0,0 0,18.94373 0,18.94373 0,1.31185 -0.75575,2.70954 -1.7003,3.13644 0,0 -14.39642,6.50668 -14.39642,6.50668 -1.05246,0.47567 -1.90527,-0.26393 -1.90527,-1.66142 0,0 0,-20.18032 0,-20.18032 0,-1.39749 0.85281,-2.83477 1.90527,-3.22007 0,0 14.39642,-5.27053 14.39642,-5.27053 0.94455,-0.3458 1.7003,0.43364 1.7003,1.74549 0,0 0,0 0,0"
         style="fill:#ff0000;fill-opacity:1;stroke:#000000;stroke-width:2.64583325;stroke-miterlimit:4;stroke-dasharray:none;stroke-opacity:1"
         inkscape:connector-curvature="0" />
      <path
         id="R"
         d="m 922.8456,330.39707 c 0,0 0,18.94373 0,18.94373 0,1.31185 -0.75575,2.78093 -1.7003,3.29705 0,0 -14.39642,7.86644 -14.39642,7.86644 -1.05246,0.57508 -1.90527,-0.084 -1.90527,-1.48147 0,0 0,-20.18033 0,-20.18033 0,-1.39748 0.85281,-2.9153 1.90527,-3.40001 0,0 14.39642,-6.6303 14.39642,-6.6303 0.94455,-0.43501 1.7003,0.27303 1.7003,1.58489 0,0 0,0 0,0"
         style="fill:#ff0000;fill-opacity:1;stroke:#000000;stroke-width:2.64583325;stroke-miterlimit:4;stroke-dasharray:none;stroke-opacity:1"
         inkscape:connector-curvature="0" />
    </g>
    <g
       id="g4808">
      <path
         style="fill:#000000;fill-opacity:1;stroke:#000000;stroke-width:2.64583325;stroke-miterlimit:4;stroke-dasharray:none;stroke-opacity:1"
         d="m 950.09151,346.7685 c 0,0 50.09259,16.22648 50.09259,16.22648 0,0 0,-65.97174 0,-65.97174 0,0 -50.0597,-9.27573 -50.0597,-9.27573 0,0 -0.035,59.02099 -0.035,59.02099"
         id="FACE-B"
         inkscape:connector-curvature="0" />
      <path
         style="fill:#0050ff;fill-opacity:1;stroke:#000000;stroke-width:2.64583325;stroke-miterlimit:4;stroke-dasharray:none;stroke-opacity:1"
         d="m 985.70825,360.4396 c 0,0 14.47585,4.7561 14.47585,4.7561 1.0361,0.34043 1.8736,-0.36984 1.8736,-1.59384 0,0 2e-4,-17.67141 2e-4,-17.67141 0,-1.22349 -0.8372,-2.4448 -1.8731,-2.73725 0,0 -14.47242,-4.0858 -14.47242,-4.0858 -0.96969,-0.27376 -1.74759,0.45427 -1.74784,1.63135 0,0 -0.004,17.00103 -0.004,17.00103 -2.5e-4,1.17756 0.77742,2.38116 1.74733,2.69982 0,0 0,0 0,0"
         id="DRB-B"
         inkscape:connector-curvature="0" />
      <path
         style="fill:#0050ff;fill-opacity:1;stroke:#000000;stroke-width:2.64583325;stroke-miterlimit:4;stroke-dasharray:none;stroke-opacity:1"
         d="m 950.09036,348.7372 c 0,0 12.29731,4.04033 12.29731,4.04033 0.87795,0.28845 1.58769,-0.38522 1.58819,-1.5115 0,0 0.007,-16.26079 0.007,-16.26079 4.9e-4,-1.12583 -0.70832,-2.23239 -1.58608,-2.4802 0,0 -12.29486,-3.47105 -12.29486,-3.47105 -0.82593,-0.23317 -1.48904,0.45438 -1.48971,1.54081 0,0 -0.01,15.69143 -0.01,15.69143 -6.6e-4,1.08684 0.66152,2.17955 1.4876,2.45097 0,0 0,0 0,0"
         id="DLB-B"
         inkscape:connector-curvature="0" />
      <path
         style="fill:#0050ff;fill-opacity:1;stroke:#000000;stroke-width:2.64583325;stroke-miterlimit:4;stroke-dasharray:none;stroke-opacity:1"
         d="m 950.11602,305.44561 c 0,0 12.29192,2.78858 12.29192,2.78858 0.87755,0.19908 1.58697,-0.5459 1.58746,-1.67105 0,0 0.007,-16.2445 0.007,-16.2445 5e-4,-1.12472 -0.70799,-2.15823 -1.58535,-2.31674 0,0 -12.28947,-2.22041 -12.28947,-2.22041 -0.82557,-0.14916 -1.48841,0.60494 -1.48907,1.69033 0,0 -0.01,15.67626 -0.01,15.67626 -6.6e-4,1.08578 0.66124,2.11021 1.48697,2.29753 0,0 0,0 0,0"
         id="ULB-B"
         inkscape:connector-curvature="0" />
      <path
         style="fill:#0050ff;fill-opacity:1;stroke:#000000;stroke-width:2.64583325;stroke-miterlimit:4;stroke-dasharray:none;stroke-opacity:1"
         d="m 985.71734,313.52222 c 0,0 14.46826,3.2823 14.46826,3.2823 1.0356,0.23494 1.8726,-0.55953 1.8726,-1.7822 0,0 2e-4,-17.65218 2e-4,-17.65218 0,-1.22216 -0.8368,-2.35722 -1.8721,-2.54428 0,0 -14.46484,-2.61344 -14.46484,-2.61344 -0.96919,-0.17511 -1.7467,0.63105 -1.74695,1.8069 0,0 -0.004,16.98323 -0.004,16.98323 -2.6e-4,1.17632 0.77702,2.29974 1.74645,2.51967 0,0 0,0 0,0"
         id="URB-B"
         inkscape:connector-curvature="0" />
      <path
         style="fill:#0050ff;fill-opacity:1;stroke:#000000;stroke-width:2.64583325;stroke-miterlimit:4;stroke-dasharray:none;stroke-opacity:1"
         d="m 967.18432,354.35349 c 0,0 13.32002,4.37635 13.32002,4.37635 0.95214,0.31283 1.72177,-0.37882 1.72204,-1.55193 0,0 0.004,-16.93677 0.004,-16.93677 2.8e-4,-1.17264 -0.76874,-2.33382 -1.72067,-2.60256 0,0 -13.31711,-3.75965 -13.31711,-3.75965 -0.89349,-0.25224 -1.61055,0.45506 -1.61103,1.585 0,0 -0.007,16.32 -0.007,16.32 -4.7e-4,1.13038 0.71598,2.27594 1.60965,2.56956 0,0 0,0 0,0"
         id="DB-B"
         inkscape:connector-curvature="0" />
      <path
         style="fill:#0050ff;fill-opacity:1;stroke:#000000;stroke-width:2.64583325;stroke-miterlimit:4;stroke-dasharray:none;stroke-opacity:1"
         d="m 967.20239,309.32187 c 0,0 13.31364,3.02037 13.31364,3.02037 0.95166,0.21589 1.72092,-0.5531 1.72119,-1.72499 0,0 0.004,-16.91911 0.004,-16.91911 2.7e-4,-1.17141 -0.76837,-2.25335 -1.71982,-2.42526 0,0 -13.31074,-2.40492 -13.31074,-2.40492 -0.89307,-0.16136 -1.60981,0.61794 -1.61028,1.74675 0,0 -0.007,16.30359 -0.007,16.30359 -4.7e-4,1.12924 0.71565,2.20092 1.60891,2.40357 0,0 0,0 0,0"
         id="UB-B"
         inkscape:connector-curvature="0" />
      <path
         style="fill:#0050ff;fill-opacity:1;stroke:#000000;stroke-width:2.64583325;stroke-miterlimit:4;stroke-dasharray:none;stroke-opacity:1"
         d="m 985.71279,336.97474 c 0,0 14.47201,4.01881 14.47201,4.01881 1.0359,0.28765 1.8731,-0.46474 1.8731,-1.68807 0,0 2e-4,-17.6618 2e-4,-17.6618 0,-1.22282 -0.837,-2.40098 -1.8726,-2.64071 0,0 -14.46858,-3.34922 -14.46858,-3.34922 -0.96944,-0.22441 -1.74714,0.5427 -1.74739,1.71917 0,0 -0.004,16.99212 -0.004,16.99212 -2.5e-4,1.17695 0.77723,2.34043 1.74689,2.6097 0,0 0,0 0,0"
         id="RB-B"
         inkscape:connector-curvature="0" />
      <path
         style="fill:#0050ff;fill-opacity:1;stroke:#000000;stroke-width:2.64583325;stroke-miterlimit:4;stroke-dasharray:none;stroke-opacity:1"
         d="m 950.10319,327.08615 c 0,0 12.29462,3.41415 12.29462,3.41415 0.87774,0.24374 1.58733,-0.4656 1.58782,-1.59131 0,0 0.007,-16.25265 0.007,-16.25265 4.9e-4,-1.12527 -0.70816,-2.19529 -1.58572,-2.39843 0,0 -12.29216,-2.84542 -12.29216,-2.84542 -0.82575,-0.19114 -1.48873,0.5297 -1.48939,1.6156 0,0 -0.01,15.68385 -0.01,15.68385 -6.6e-4,1.08631 0.66138,2.14486 1.48728,2.37421 0,0 0,0 0,0"
         id="LB-B"
         inkscape:connector-curvature="0" />
      <path
         style="fill:#0050ff;fill-opacity:1;stroke:#000000;stroke-width:2.64583325;stroke-miterlimit:4;stroke-dasharray:none;stroke-opacity:1"
         d="m 967.19336,331.83199 c 0,0 13.31683,3.69801 13.31683,3.69801 0.9519,0.26434 1.72134,-0.46599 1.72161,-1.63849 0,0 0.004,-16.92794 0.004,-16.92794 2.7e-4,-1.17203 -0.76855,-2.29356 -1.72024,-2.51386 0,0 -13.31393,-3.08194 -13.31393,-3.08194 -0.89328,-0.20678 -1.61018,0.53654 -1.61065,1.66591 0,0 -0.007,16.3118 -0.007,16.3118 -4.7e-4,1.12981 0.71581,2.2384 1.60928,2.48651 0,0 0,0 0,0"
         id="B"
         inkscape:connector-curvature="0" />
    </g>
    <g
       id="g5436">
      <path
         style="fill:#000000;fill-opacity:1;stroke:#000000;stroke-width:2.64583325;stroke-miterlimit:4;stroke-dasharray:none;stroke-opacity:1"
         d="m 812.59374,287.99751 c 0,0 0.0396,59.16538 0.0396,59.16538 0,0 -57.55795,26.36685 -57.55795,26.36685 0,0 -0.003,-69.98139 -0.003,-69.98139 0,0 57.52103,-15.55084 57.52103,-15.55084"
         id="FACE-L"
         inkscape:connector-curvature="0" />
      <path
         style="fill:#ff7f00;fill-opacity:1;stroke:#000000;stroke-width:2.64583325;stroke-miterlimit:4;stroke-dasharray:none;stroke-opacity:1"
         d="m 814.20694,287.56137 c 0,0 0.0108,15.68914 0.0108,15.68914 7.5e-4,1.08667 -0.7162,2.19591 -1.6121,2.48855 0,0 -13.53091,4.41977 -13.53091,4.41977 -0.98015,0.32016 -1.77394,-0.34281 -1.77451,-1.48817 0,0 -0.008,-16.5363 -0.008,-16.5363 -5.7e-4,-1.14492 0.79214,-2.27609 1.7721,-2.5349 0,0 13.52843,-3.57282 13.52843,-3.57282 0.89574,-0.23656 1.61377,0.44845 1.61451,1.53473 0,0 0,0 0,0"
         id="ULB-L"
         inkscape:connector-curvature="0" />
      <path
         style="fill:#ff7f00;fill-opacity:1;stroke:#000000;stroke-width:2.64583325;stroke-miterlimit:4;stroke-dasharray:none;stroke-opacity:1"
         d="m 814.23657,330.71951 c 0,0 0.0108,15.704 0.0108,15.704 7.5e-4,1.08771 -0.71648,2.29671 -1.61272,2.71288 0,0 -13.53638,6.28569 -13.53638,6.28569 -0.98056,0.45533 -1.77469,-0.0991 -1.77527,-1.24565 0,0 -0.008,-16.5528 -0.008,-16.5528 -5.7e-4,-1.14606 0.79248,-2.38746 1.77286,-2.78132 0,0 13.53389,-5.43709 13.53389,-5.43709 0.89608,-0.36 1.61438,0.22699 1.61513,1.31429 0,0 0,0 0,0"
         id="DLB-L"
         inkscape:connector-curvature="0" />
      <path
         style="fill:#ff7f00;fill-opacity:1;stroke:#000000;stroke-width:2.64583325;stroke-miterlimit:4;stroke-dasharray:none;stroke-opacity:1"
         d="m 774.43089,346.9602 c 0,0 0.004,17.70089 0.004,17.70089 3.1e-4,1.22604 -0.91138,2.63656 -2.05071,3.16561 0,0 -17.30916,8.0376 -17.30916,8.0376 -1.26128,0.58568 -2.28292,0.0125 -2.28293,-1.28881 0,0 -2.5e-4,-18.78675 -2.5e-4,-18.78675 -10e-6,-1.30069 1.02133,-2.75811 2.28229,-3.26469 0,0 17.30498,-6.95209 17.30498,-6.95209 1.13908,-0.45761 2.05105,0.16271 2.05135,1.38824 0,0 0,0 0,0"
         id="DLF-L"
         inkscape:connector-curvature="0" />
      <path
         style="fill:#ff7f00;fill-opacity:1;stroke:#000000;stroke-width:2.64583325;stroke-miterlimit:4;stroke-dasharray:none;stroke-opacity:1"
         d="m 774.41873,298.31814 c 0,0 0.004,17.68201 0.004,17.68201 3.1e-4,1.22473 -0.91092,2.50847 -2.04968,2.88044 0,0 -17.29997,5.6509 -17.29997,5.6509 -1.26057,0.41176 -2.28163,-0.30117 -2.28165,-1.60096 0,0 -2.4e-4,-18.76549 -2.4e-4,-18.76549 -2e-5,-1.29923 1.02075,-2.61474 2.28101,-2.94757 0,0 17.29579,-4.56777 17.29579,-4.56777 1.1385,-0.30068 2.05002,0.4442 2.05032,1.66844 0,0 0,0 0,0"
         id="ULF-L"
         inkscape:connector-curvature="0" />
      <path
         style="fill:#ff7f00;fill-opacity:1;stroke:#000000;stroke-width:2.64583325;stroke-miterlimit:4;stroke-dasharray:none;stroke-opacity:1"
         d="m 814.22175,309.13534 c 0,0 0.0108,15.69657 0.0108,15.69657 7.4e-4,1.08719 -0.71634,2.24628 -1.61241,2.60066 0,0 -13.53365,5.35228 -13.53365,5.35228 -0.98035,0.38771 -1.77431,-0.22104 -1.77489,-1.36697 0,0 -0.008,-16.54455 -0.008,-16.54455 -5.7e-4,-1.14549 0.79231,-2.33175 1.77248,-2.65804 0,0 13.53116,-4.50451 13.53116,-4.50451 0.89591,-0.29825 1.61408,0.33778 1.61482,1.42456 0,0 0,0 0,0"
         id="LB-L"
         inkscape:connector-curvature="0" />
      <path
         style="fill:#ff7f00;fill-opacity:1;stroke:#000000;stroke-width:2.64583325;stroke-miterlimit:4;stroke-dasharray:none;stroke-opacity:1"
         d="m 774.42481,322.63269 c 0,0 0.004,17.69146 0.004,17.69146 3e-4,1.22538 -0.91116,2.57247 -2.0502,3.02294 0,0 -17.30457,6.84359 -17.30457,6.84359 -1.26093,0.49868 -2.28227,-0.14443 -2.28229,-1.44496 0,0 -2.4e-4,-18.77612 -2.4e-4,-18.77612 -2e-5,-1.29996 1.02104,-2.68638 2.28165,-3.10604 0,0 17.30039,-5.75928 17.30039,-5.75928 1.13878,-0.3791 2.05053,0.30353 2.05083,1.52841 0,0 0,0 0,0"
         id="LF-L"
         inkscape:connector-curvature="0" />
      <path
         style="fill:#ff7f00;fill-opacity:1;stroke:#000000;stroke-width:2.64583325;stroke-miterlimit:4;stroke-dasharray:none;stroke-opacity:1"
         d="m 795.49951,292.61894 c 0,0 0.008,16.62607 0.008,16.62607 5.6e-4,1.15157 -0.80483,2.34191 -1.81127,2.67065 0,0 -15.24218,4.97875 -15.24218,4.97875 -1.10717,0.36164 -2.00388,-0.32588 -2.00422,-1.54358 0,0 -0.005,-17.58051 -0.005,-17.58051 -3.3e-4,-1.21721 0.89565,-2.43379 2.00257,-2.72613 0,0 15.23897,-4.02457 15.23897,-4.02457 1.00624,-0.26574 1.81236,0.44818 1.81291,1.59932 0,0 0,0 0,0"
         id="UL-L"
         inkscape:connector-curvature="0" />
      <path
         style="fill:#ff7f00;fill-opacity:1;stroke:#000000;stroke-width:2.64583325;stroke-miterlimit:4;stroke-dasharray:none;stroke-opacity:1"
         d="m 795.52152,338.35524 c 0,0 0.008,16.64276 0.008,16.64276 5.6e-4,1.15273 -0.80518,2.45513 -1.81206,2.92268 0,0 -15.24926,7.08107 -15.24926,7.08107 -1.10771,0.51437 -2.00486,-0.0505 -2.00519,-1.26953 0,0 -0.005,-17.59917 -0.005,-17.59917 -3.3e-4,-1.21849 0.89609,-2.55965 2.00356,-3.00456 0,0 15.24604,-6.12493 15.24604,-6.12493 1.00667,-0.40442 1.81315,0.19939 1.8137,1.35168 0,0 0,0 0,0"
         id="DL-L"
         inkscape:connector-curvature="0" />
      <path
         style="fill:#ff7f00;fill-opacity:1;stroke:#000000;stroke-width:2.64583325;stroke-miterlimit:4;stroke-dasharray:none;stroke-opacity:1"
         d="m 795.51052,315.48136 c 0,0 0.008,16.63442 0.008,16.63442 5.6e-4,1.15215 -0.80501,2.39848 -1.81167,2.7966 0,0 -15.24572,6.02936 -15.24572,6.02936 -1.10743,0.43797 -2.00437,-0.18827 -2.0047,-1.40662 0,0 -0.005,-17.58984 -0.005,-17.58984 -3.3e-4,-1.21784 0.89587,-2.49668 2.00306,-2.86526 0,0 15.2425,-5.07421 15.2425,-5.07421 1.00646,-0.33505 1.81276,0.32384 1.81332,1.47555 0,0 0,0 0,0"
         id="L"
         inkscape:connector-curvature="0" />
    </g>
  </g>
</svg>
